<svg viewBox="306.5725 207.3236 532.855 179.3527" width="5000" height="1682.940950164679" xmlns="http://www.w3.org/2000/svg" xmlns:xlink="http://www.w3.org/1999/xlink" preserveAspectRatio="none"><defs></defs><style>.aLgOaV3zRcolors-0 {fill:#0A0A0A;fill-opacity:1;}.aLgOaV3zRcolors-1 {fill:#3E4AB8;fill-opacity:1;}.aLgOaV3zRcolors-2 {fill:#A0A0A0;fill-opacity:1;}.aLgOaV3zRcolors-3 {fill:#0A0A0A;fill-opacity:1;}.aLgOaV3zRcolors-4 {fill:#3E4AB8;fill-opacity:1;}.aLgOaV3zRcolors-5 {fill:#A0A0A0;fill-opacity:1;}.aLgOaV3zRcolors-6 {fill:#0A0A0A;fill-opacity:1;}.aLgOaV3zRcolors-7 {fill:#3E4AB8;fill-opacity:1;}.companyName {fill:#3E4AB8;fill-opacity:1;}.icon3-str {stroke:#A0A0A0;stroke-opacity:1;}.text {fill:#3E4AB8;fill-opacity:1;}</style><g opacity="1" transform="rotate(0 521.2413 357.1208)">
<svg width="289.8992" height="25.3178" x="521.2413" y="357.1208" version="1.1" preserveAspectRatio="none" viewBox="0.96 -30.28 438.28000000000003 38.28">
  <g transform="matrix(1 0 0 1 0 0)" class="text"><path id="id-6izo4zJp17" d="M9.72 0.24Q7.12 0.24 4.72-0.46Q2.32-1.16 0.96-2.24L0.96-2.24L2.56-5.28Q3.96-4.28 5.96-3.68Q7.96-3.08 10-3.08L10-3.08Q15.04-3.08 15.04-5.96L15.04-5.96Q15.04-6.92 14.36-7.48Q13.68-8.04 12.66-8.30Q11.64-8.56 9.76-8.88L9.76-8.88Q7.20-9.28 5.58-9.80Q3.96-10.32 2.80-11.56Q1.64-12.80 1.64-15.04L1.64-15.04Q1.64-17.92 4.04-19.66Q6.44-21.40 10.48-21.40L10.48-21.40Q12.60-21.40 14.72-20.88Q16.84-20.36 18.20-19.48L18.20-19.48L16.56-16.44Q13.96-18.12 10.44-18.12L10.44-18.12Q8-18.12 6.72-17.32Q5.44-16.52 5.44-15.20L5.44-15.20Q5.44-14.16 6.16-13.56Q6.88-12.96 7.94-12.68Q9-12.40 10.92-12.04L10.92-12.04Q13.48-11.60 15.06-11.10Q16.64-10.60 17.76-9.40Q18.88-8.20 18.88-6.04L18.88-6.04Q18.88-3.16 16.42-1.46Q13.96 0.24 9.72 0.24L9.72 0.24Z M29.68 0L29.68-21.20L33.52-21.20L33.52 0L29.68 0ZM31.60-25.28Q30.48-25.28 29.74-26Q29-26.72 29-27.76L29-27.76Q29-28.80 29.74-29.54Q30.48-30.28 31.60-30.28L31.60-30.28Q32.72-30.28 33.46-29.58Q34.20-28.88 34.20-27.84L34.20-27.84Q34.20-26.76 33.46-26.02Q32.72-25.28 31.60-25.28L31.60-25.28Z M73.36-21.40Q77.36-21.40 79.70-19.08Q82.04-16.76 82.04-12.20L82.04-12.20L82.04 0L78.20 0L78.20-11.76Q78.20-14.84 76.78-16.40Q75.36-17.96 72.72-17.96L72.72-17.96Q69.80-17.96 68.08-16.14Q66.36-14.32 66.36-10.92L66.36-10.92L66.36 0L62.52 0L62.52-11.76Q62.52-14.84 61.10-16.40Q59.68-17.96 57.04-17.96L57.04-17.96Q54.12-17.96 52.40-16.14Q50.68-14.32 50.68-10.92L50.68-10.92L50.68 0L46.84 0L46.84-21.20L50.52-21.20L50.52-18.04Q51.68-19.68 53.56-20.54Q55.44-21.40 57.84-21.40L57.84-21.40Q60.32-21.40 62.24-20.40Q64.16-19.40 65.20-17.48L65.20-17.48Q66.40-19.32 68.54-20.36Q70.68-21.40 73.36-21.40L73.36-21.40Z M106.36-21.40Q109.44-21.40 111.88-20.04Q114.32-18.68 115.70-16.24Q117.08-13.80 117.08-10.60L117.08-10.60Q117.08-7.40 115.70-4.94Q114.32-2.48 111.88-1.12Q109.44 0.24 106.36 0.24L106.36 0.24Q104.08 0.24 102.18-0.64Q100.28-1.52 98.96-3.20L98.96-3.20L98.96 7.76L95.12 7.76L95.12-21.20L98.80-21.20L98.80-17.84Q100.08-19.60 102.04-20.50Q104-21.40 106.36-21.40L106.36-21.40ZM106.04-3.12Q108.08-3.12 109.70-4.06Q111.32-5 112.26-6.70Q113.20-8.40 113.20-10.60L113.20-10.60Q113.20-12.80 112.26-14.50Q111.32-16.20 109.70-17.12Q108.08-18.04 106.04-18.04L106.04-18.04Q104.04-18.04 102.42-17.10Q100.80-16.16 99.86-14.48Q98.92-12.80 98.92-10.60L98.92-10.60Q98.92-8.40 99.84-6.70Q100.76-5 102.40-4.06Q104.04-3.12 106.04-3.12L106.04-3.12Z M128.40 0L128.40-29.68L132.24-29.68L132.24 0L128.40 0Z M145.56 0L145.56-21.20L149.40-21.20L149.40 0L145.56 0ZM147.48-25.28Q146.36-25.28 145.62-26Q144.88-26.72 144.88-27.76L144.88-27.76Q144.88-28.80 145.62-29.54Q146.36-30.28 147.48-30.28L147.48-30.28Q148.60-30.28 149.34-29.58Q150.08-28.88 150.08-27.84L150.08-27.84Q150.08-26.76 149.34-26.02Q148.60-25.28 147.48-25.28L147.48-25.28Z M170.48-26.76Q167.04-26.76 167.04-23.04L167.04-23.04L167.04-21.20L173.20-21.20L173.20-18.04L167.12-18.04L167.12 0L163.28 0L163.28-18.04L159.68-18.04L159.68-21.20L163.28-21.20L163.28-23.08Q163.28-26.24 165.12-28.08Q166.96-29.92 170.28-29.92L170.28-29.92Q171.56-29.92 172.68-29.60Q173.80-29.28 174.60-28.68L174.60-28.68L173.44-25.76Q172.12-26.76 170.48-26.76L170.48-26.76Z M198.24-21.20L202.00-21.20L191.72 2.12Q190.36 5.36 188.54 6.68Q186.72 8 184.16 8L184.16 8Q182.60 8 181.14 7.50Q179.68 7 178.72 6.04L178.72 6.04L180.36 3.16Q182.00 4.72 184.16 4.72L184.16 4.72Q185.56 4.72 186.50 3.98Q187.44 3.24 188.20 1.44L188.20 1.44L188.88-0.04L179.52-21.20L183.52-21.20L190.92-4.24L198.24-21.20Z M211.60 0L211.60-21.20L215.44-21.20L215.44 0L211.60 0ZM213.52-25.28Q212.40-25.28 211.66-26Q210.92-26.72 210.92-27.76L210.92-27.76Q210.92-28.80 211.66-29.54Q212.40-30.28 213.52-30.28L213.52-30.28Q214.64-30.28 215.38-29.58Q216.12-28.88 216.12-27.84L216.12-27.84Q216.12-26.76 215.38-26.02Q214.64-25.28 213.52-25.28L213.52-25.28Z M240.08-21.40Q244.12-21.40 246.50-19.06Q248.88-16.72 248.88-12.20L248.88-12.20L248.88 0L245.04 0L245.04-11.76Q245.04-14.84 243.56-16.40Q242.08-17.96 239.32-17.96L239.32-17.96Q236.20-17.96 234.40-16.14Q232.60-14.32 232.60-10.92L232.60-10.92L232.60 0L228.76 0L228.76-21.20L232.44-21.20L232.44-18Q233.60-19.64 235.58-20.52Q237.56-21.40 240.08-21.40L240.08-21.40Z M278.76-21.20L282.40-21.20L282.40-2.88Q282.40 2.68 279.64 5.34Q276.88 8 271.40 8L271.40 8Q268.40 8 265.68 7.18Q262.96 6.36 261.28 4.84L261.28 4.84L263.12 1.88Q264.60 3.16 266.78 3.90Q268.96 4.64 271.28 4.64L271.28 4.64Q275 4.64 276.78 2.88Q278.56 1.12 278.56-2.48L278.56-2.48L278.56-4.16Q277.20-2.52 275.22-1.70Q273.24-0.88 270.92-0.88L270.92-0.88Q267.88-0.88 265.42-2.18Q262.96-3.48 261.56-5.82Q260.16-8.16 260.16-11.16L260.16-11.16Q260.16-14.16 261.56-16.50Q262.96-18.84 265.42-20.12Q267.88-21.40 270.92-21.40L270.92-21.40Q273.32-21.40 275.38-20.52Q277.44-19.64 278.76-17.92L278.76-17.92L278.76-21.20ZM271.36-4.24Q273.44-4.24 275.10-5.12Q276.76-6 277.70-7.58Q278.64-9.16 278.64-11.16L278.64-11.16Q278.64-14.24 276.60-16.14Q274.56-18.04 271.36-18.04L271.36-18.04Q268.12-18.04 266.08-16.14Q264.04-14.24 264.04-11.16L264.04-11.16Q264.04-9.16 264.98-7.58Q265.92-6 267.58-5.12Q269.24-4.24 271.36-4.24L271.36-4.24Z M312.48 0L312.48-29.68L316.32-29.68L316.32 0L312.48 0Z M338.72 0.24Q335.56 0.24 333.04-1.16Q330.52-2.56 329.10-5.02Q327.68-7.48 327.68-10.60L327.68-10.60Q327.68-13.72 329.10-16.18Q330.52-18.64 333.04-20.02Q335.56-21.40 338.72-21.40L338.72-21.40Q341.88-21.40 344.38-20.02Q346.88-18.64 348.30-16.18Q349.72-13.72 349.72-10.60L349.72-10.60Q349.72-7.48 348.30-5.02Q346.88-2.56 344.38-1.16Q341.88 0.24 338.72 0.24L338.72 0.24ZM338.72-3.12Q340.76-3.12 342.38-4.06Q344.00-5 344.92-6.70Q345.84-8.40 345.84-10.60L345.84-10.60Q345.84-12.80 344.92-14.50Q344.00-16.20 342.38-17.12Q340.76-18.04 338.72-18.04L338.72-18.04Q336.68-18.04 335.06-17.12Q333.44-16.20 332.50-14.50Q331.56-12.80 331.56-10.60L331.56-10.60Q331.56-8.40 332.50-6.70Q333.44-5 335.06-4.06Q336.68-3.12 338.72-3.12L338.72-3.12Z M368.56-21.40Q372.96-21.40 375.30-19.24Q377.64-17.08 377.64-12.80L377.64-12.80L377.64 0L374.00 0L374.00-2.80Q373.04-1.32 371.26-0.54Q369.48 0.24 367.04 0.24L367.04 0.24Q363.48 0.24 361.34-1.48Q359.20-3.20 359.20-6L359.20-6Q359.20-8.80 361.24-10.50Q363.28-12.20 367.72-12.20L367.72-12.20L373.80-12.20L373.80-12.96Q373.80-15.44 372.36-16.76Q370.92-18.08 368.12-18.08L368.12-18.08Q366.24-18.08 364.44-17.46Q362.64-16.84 361.40-15.80L361.40-15.80L359.80-18.68Q361.44-20 363.72-20.70Q366.00-21.40 368.56-21.40L368.56-21.40ZM367.68-2.72Q369.88-2.72 371.48-3.70Q373.08-4.68 373.80-6.48L373.80-6.48L373.80-9.44L367.88-9.44Q363.00-9.44 363.00-6.16L363.00-6.16Q363.00-4.56 364.24-3.64Q365.48-2.72 367.68-2.72L367.68-2.72Z M402.08-21.40Q406.12-21.40 408.50-19.06Q410.88-16.72 410.88-12.20L410.88-12.20L410.88 0L407.04 0L407.04-11.76Q407.04-14.84 405.56-16.40Q404.08-17.96 401.32-17.96L401.32-17.96Q398.20-17.96 396.40-16.14Q394.60-14.32 394.60-10.92L394.60-10.92L394.60 0L390.76 0L390.76-21.20L394.44-21.20L394.44-18Q395.60-19.64 397.58-20.52Q399.56-21.40 402.08-21.40L402.08-21.40Z M430.08 0.24Q427.48 0.24 425.08-0.46Q422.68-1.16 421.32-2.24L421.32-2.24L422.92-5.28Q424.32-4.28 426.32-3.68Q428.32-3.08 430.36-3.08L430.36-3.08Q435.40-3.08 435.40-5.96L435.40-5.96Q435.40-6.92 434.72-7.48Q434.04-8.04 433.02-8.30Q432.00-8.56 430.12-8.88L430.12-8.88Q427.56-9.28 425.94-9.80Q424.32-10.32 423.16-11.56Q422.00-12.80 422.00-15.04L422.00-15.04Q422.00-17.92 424.40-19.66Q426.80-21.40 430.84-21.40L430.84-21.40Q432.96-21.40 435.08-20.88Q437.20-20.36 438.56-19.48L438.56-19.48L436.92-16.44Q434.32-18.12 430.80-18.12L430.80-18.12Q428.36-18.12 427.08-17.32Q425.80-16.52 425.80-15.20L425.80-15.20Q425.80-14.16 426.52-13.56Q427.24-12.96 428.30-12.68Q429.36-12.40 431.28-12.04L431.28-12.04Q433.84-11.60 435.42-11.10Q437.00-10.60 438.12-9.40Q439.24-8.20 439.24-6.04L439.24-6.04Q439.24-3.16 436.78-1.46Q434.32 0.24 430.08 0.24L430.08 0.24Z"/></g>
</svg>
</g><g opacity="1" transform="rotate(0 492.9542 207.3236)">
<svg width="346.4733" height="126.5892" x="492.9542" y="207.3236" version="1.1" preserveAspectRatio="none" viewBox="-0.36 -29.68 82 29.959999999999997">
  <g transform="matrix(1 0 0 1 0 0)" class="companyName"><path id="id-D6z1nYkh4" d="M26.80-28L15.84-9.88L15.84 0L10.64 0L10.64-9.80L-0.36-28L5.20-28L13.40-14.36L21.68-28L26.80-28Z M47.40-10.56Q47.40-10.04 47.32-9.08L47.32-9.08L30.56-9.08Q31.00-6.72 32.86-5.34Q34.72-3.96 37.48-3.96L37.48-3.96Q41-3.96 43.28-6.28L43.28-6.28L45.96-3.20Q44.52-1.48 42.32-0.60Q40.12 0.28 37.36 0.28L37.36 0.28Q33.84 0.28 31.16-1.12Q28.48-2.52 27.02-5.02Q25.56-7.52 25.56-10.68L25.56-10.68Q25.56-13.80 26.98-16.30Q28.40-18.80 30.92-20.20Q33.44-21.60 36.60-21.60L36.60-21.60Q39.72-21.60 42.18-20.22Q44.64-18.84 46.02-16.34Q47.40-13.84 47.40-10.56L47.40-10.56ZM36.60-17.60Q34.20-17.60 32.54-16.18Q30.88-14.76 30.52-12.40L30.52-12.40L42.64-12.40Q42.32-14.72 40.68-16.16Q39.04-17.60 36.60-17.60L36.60-17.60Z M52.20 0L52.20-29.68L57.20-29.68L57.20 0L52.20 0Z M71.92-21.60Q76.64-21.60 79.14-19.34Q81.64-17.08 81.64-12.52L81.64-12.52L81.64 0L76.92 0L76.92-2.60Q76-1.20 74.30-0.46Q72.60 0.28 70.20 0.28L70.20 0.28Q67.80 0.28 66-0.54Q64.20-1.36 63.22-2.82Q62.24-4.28 62.24-6.12L62.24-6.12Q62.24-9 64.38-10.74Q66.52-12.48 71.12-12.48L71.12-12.48L76.64-12.48L76.64-12.80Q76.64-15.04 75.30-16.24Q73.96-17.44 71.32-17.44L71.32-17.44Q69.52-17.44 67.78-16.88Q66.04-16.32 64.84-15.32L64.84-15.32L62.88-18.96Q64.56-20.24 66.92-20.92Q69.28-21.60 71.92-21.60L71.92-21.60ZM71.24-3.36Q73.12-3.36 74.58-4.22Q76.04-5.08 76.64-6.68L76.64-6.68L76.64-9.16L71.48-9.16Q67.16-9.16 67.16-6.32L67.16-6.32Q67.16-4.96 68.24-4.16Q69.32-3.36 71.24-3.36L71.24-3.36Z"/></g>
</svg>
</g><g opacity="1" transform="rotate(0 306.5725 213.4386)">
<svg width="173.2367" height="173.2377" x="306.5725" y="213.4386" version="1.1" preserveAspectRatio="none" viewBox="19.99898910522461 19.998489379882812 160.00051879882812 160.00152587890625">
  <g transform="matrix(1 0 0 1 0 0)" ><g><path clip-rule="evenodd" fill-rule="evenodd" d="M158.424 110.443c9.227 9.227 9.227 24.187 0 33.414l-25.94 25.94c-20.875 15.221-50.3 13.41-69.142-5.432l-5.755-5.754c8.408 8.407 21.957 8.54 30.528.4l.41-.401 42.572-42.572c8.246-8.246 9.124-21.069 2.632-30.289l24.695 24.695z" data-color="1" class="aLgOaV3zRcolors-0"></path><path clip-rule="evenodd" fill-rule="evenodd" d="M89.555 158.425c-9.227 9.227-24.187 9.227-33.414 0l-25.94-25.94c-15.221-20.876-13.41-50.3 5.432-69.143l5.754-5.754c-8.407 8.407-8.54 21.956-.4 30.527l.401.41L83.961 131.1c8.246 8.245 21.069 9.123 30.289 2.63l-24.695 24.696z" data-color="1" class="aLgOaV3zRcolors-0"></path><path clip-rule="evenodd" fill-rule="evenodd" d="M41.573 89.555c-9.227-9.227-9.227-24.186 0-33.413L67.513 30.2c20.876-15.22 50.3-13.41 69.143 5.433l5.754 5.754c-8.407-8.408-21.956-8.541-30.527-.4l-.41.4L68.9 83.962c-8.246 8.246-9.123 21.07-2.632 30.29L41.573 89.554z" data-color="1" class="aLgOaV3zRcolors-0"></path><path opacity=".648" clip-rule="evenodd" fill-rule="evenodd" d="M158.424 110.444c9.227 9.227 9.227 24.187 0 33.414l-25.94 25.94c-20.876 15.221-50.3 13.41-69.143-5.432l-5.754-5.754c8.407 8.407 21.956 8.54 30.527.4l.41-.401 42.574-42.573c8.245-8.246 9.123-21.069 2.63-30.289l24.696 24.695z" data-color="2" class="aLgOaV3zRcolors-1"></path><path clip-rule="evenodd" fill-rule="evenodd" opacity=".351" d="M89.556 158.426c-9.227 9.227-24.187 9.227-33.414 0l-25.94-25.94c-15.221-20.876-13.41-50.3 5.432-69.143l5.754-5.754c-8.407 8.407-8.54 21.956-.4 30.527l.401.41L83.962 131.1c8.245 8.246 21.069 9.123 30.289 2.632l-24.695 24.695z" data-color="2" class="aLgOaV3zRcolors-1"></path><path clip-rule="evenodd" fill-rule="evenodd" d="M110.634 41.766c9.227-9.227 24.187-9.227 33.414 0l25.75 25.749c15.22 20.876 13.41 50.3-5.433 69.143l-5.755 5.754c8.408-8.407 8.542-21.956.4-30.527l-.4-.41-42.135-42.136c-9.085-9.085-23.728-9.225-32.983-.419l-.43.42 27.572-27.574z" data-color="2" class="aLgOaV3zRcolors-1"></path></g></g>
</svg>
</g></svg>